<?xml version="1.0" encoding="UTF-8" standalone="no"?>
<!DOCTYPE svg PUBLIC "-//W3C//DTD SVG 1.1//EN" "http://www.w3.org/Graphics/SVG/1.1/DTD/svg11.dtd">
<svg width="100%" height="100%" viewBox="0 0 186 124" version="1.1" xmlns="http://www.w3.org/2000/svg" xmlns:xlink="http://www.w3.org/1999/xlink" xml:space="preserve" xmlns:serif="http://www.serif.com/" style="fill-rule:evenodd;clip-rule:evenodd;stroke-linejoin:round;stroke-miterlimit:1.41421;">
    <g transform="matrix(1,0,0,1,-158,0)">
        <g id="Bloc-Logo">
            <path id="Fill-3" d="M170.6,31.5L164.5,31.5L164.5,36.7L170.3,36.7L170.4,34.5L173.2,34.5L173.2,39.4L159,39.4L159,37.3L160.9,36.9L160.9,24L159,23.6L159,21.5L173.2,21.5L173.2,26.4L170.4,26.4L170.2,24.2L164.5,24.2L164.5,28.8L170.6,28.8L170.6,31.5Z" style="fill:rgb(35,31,32);"/>
            <path id="Fill-5" d="M180.9,28.2L179.6,28.5L181.4,34.5L181.6,35.7L181.7,35.7L181.9,34.5L183.7,28.5L182.4,28.2L182.4,26.1L188.4,26.1L188.4,28.2L187.3,28.4L183.3,39.4L179.9,39.4L176,28.4L174.8,28.2L174.8,26.1L180.9,26.1L180.9,28.2Z" style="fill:rgb(35,31,32);"/>
            <path id="Fill-7" d="M195,37C195.5,37 196,36.9 196.5,36.6C196.9,36.4 197.3,36.1 197.5,35.7L197.5,33.7L195.7,33.7C194.9,33.7 194.4,33.9 194,34.2C193.6,34.6 193.4,35 193.4,35.5C193.4,36 193.5,36.3 193.8,36.6C194.1,36.9 194.5,37 195,37ZM198.1,39.4C198,39.2 197.9,38.9 197.8,38.7C197.7,38.5 197.7,38.2 197.6,38C197.2,38.5 196.6,38.9 196,39.2C195.4,39.5 194.7,39.7 193.9,39.7C192.6,39.7 191.6,39.3 190.8,38.6C190,37.9 189.6,36.9 189.6,35.7C189.6,34.5 190.1,33.5 191.1,32.8C192.1,32.1 193.6,31.8 195.5,31.8L197.3,31.8L197.3,30.5C197.3,29.9 197.1,29.4 196.7,29C196.3,28.6 195.8,28.5 195.1,28.5C194.7,28.5 194.3,28.5 194,28.6C193.7,28.7 193.4,28.8 193.2,28.9L193,30.3L190.3,30.3L190.3,27.3C191,26.9 191.7,26.5 192.6,26.2C193.5,25.9 194.4,25.7 195.4,25.7C197.1,25.7 198.4,26.1 199.4,26.9C200.4,27.7 201,28.9 201,30.4L201,37.1L202.1,37.2L202.1,39.4L198.1,39.4Z" style="fill:rgb(35,31,32);"/>
            <path id="Fill-9" d="M203.3,37.3L205,36.9L205,28.6L203.1,28.2L203.1,26L208.4,26L208.6,27.9C209,27.2 209.6,26.7 210.2,26.3C210.8,25.9 211.6,25.7 212.4,25.7C213.8,25.7 214.8,26.1 215.6,27C216.4,27.8 216.7,29.2 216.7,31L216.7,36.8L218.4,37.2L218.4,39.4L211.5,39.4L211.5,37.2L213,36.8L213,31C213,30.1 212.8,29.5 212.5,29.1C212.1,28.7 211.6,28.5 210.9,28.5C210.4,28.5 210,28.6 209.6,28.8C209.2,29 208.9,29.3 208.7,29.6L208.7,36.8L210.2,37.2L210.2,39.4L203.4,39.4L203.4,37.3L203.3,37.3Z" style="fill:rgb(35,31,32);"/>
            <path id="Fill-11" d="M223.4,33.1C223.4,34.3 223.6,35.2 224,35.9C224.4,36.6 225,36.9 225.9,36.9C226.4,36.9 226.9,36.8 227.3,36.6C227.7,36.4 228,36.1 228.2,35.7L228.2,29.9C228,29.5 227.7,29.2 227.3,29C226.9,28.8 226.5,28.7 225.9,28.7C225,28.7 224.4,29.1 224,29.9C223.6,30.7 223.4,31.7 223.4,33L223.4,33.1ZM219.8,32.9C219.8,30.8 220.3,29.1 221.2,27.8C222.1,26.5 223.4,25.9 225.1,25.9C225.8,25.9 226.5,26.1 227.1,26.4C227.7,26.7 228.2,27.2 228.6,27.8L228.9,26.1L232,26.1L232,39.1C232,40.9 231.4,42.3 230.3,43.3C229.2,44.3 227.7,44.9 225.7,44.9C225,44.9 224.3,44.8 223.5,44.6C222.7,44.4 222,44.2 221.4,43.8L222.1,41.3C222.7,41.5 223.3,41.7 223.8,41.9C224.4,42 225,42.1 225.6,42.1C226.5,42.1 227.1,41.8 227.6,41.3C228,40.8 228.3,40 228.3,39.1L228.3,38.2C227.9,38.7 227.4,39.1 226.9,39.3C226.4,39.6 225.8,39.7 225.1,39.7C223.5,39.7 222.2,39.1 221.3,37.9C220.4,36.7 219.9,35.1 219.9,33.1L219.9,32.9L219.8,32.9Z" style="fill:rgb(35,31,32);"/>
            <path id="Fill-13" d="M240.1,28.6C239.4,28.6 238.9,28.9 238.5,29.4C238.1,29.9 237.9,30.6 237.8,31.4L237.8,31.5L242.2,31.5L242.2,31.2C242.2,30.4 242,29.8 241.7,29.4C241.3,28.8 240.8,28.6 240.1,28.6M240.4,39.7C238.5,39.7 236.9,39.1 235.8,37.8C234.6,36.6 234.1,35 234.1,33.1L234.1,32.6C234.1,30.6 234.6,29 235.7,27.7C236.8,26.4 238.3,25.8 240.1,25.8C241.9,25.8 243.3,26.3 244.3,27.4C245.3,28.5 245.8,30 245.8,31.8L245.8,33.8L237.8,33.8L237.8,33.9C237.9,34.8 238.2,35.5 238.7,36.1C239.2,36.7 239.9,37 240.8,37C241.6,37 242.3,36.9 242.8,36.8C243.3,36.6 243.9,36.4 244.5,36L245.5,38.2C244.9,38.6 244.2,39 243.4,39.3C242.4,39.5 241.5,39.7 240.4,39.7" style="fill:rgb(35,31,32);"/>
            <path id="Fill-15" d="M247.1,22.3L247.1,20.2L252.6,20.2L252.6,36.9L254.3,37.3L254.3,39.4L247.2,39.4L247.2,37.3L249,36.9L249,22.7L247.1,22.3Z" style="fill:rgb(35,31,32);"/>
            <path id="Fill-17" d="M257.1,22.9L260.7,22.9L260.7,20.2L257.1,20.2L257.1,22.9ZM255.4,37.3L257.1,36.9L257.1,28.6L255.2,28.2L255.2,26L260.7,26L260.7,36.8L262.4,37.2L262.4,39.4L255.3,39.4L255.3,37.3L255.4,37.3Z" style="fill:rgb(35,31,32);"/>
            <path id="Fill-19" d="M274.6,30.7L272.2,30.7L271.8,29C271.6,28.8 271.2,28.6 270.9,28.5C270.5,28.4 270.1,28.3 269.7,28.3C269.1,28.3 268.6,28.4 268.2,28.7C267.8,29 267.6,29.3 267.6,29.8C267.6,30.2 267.8,30.5 268.1,30.8C268.5,31.1 269.2,31.3 270.2,31.5C271.9,31.8 273.1,32.3 273.9,33C274.7,33.6 275.1,34.5 275.1,35.6C275.1,36.8 274.6,37.8 273.6,38.5C272.6,39.3 271.2,39.6 269.5,39.6C268.5,39.6 267.5,39.4 266.7,39.1C265.8,38.8 265.1,38.4 264.4,37.8L264.4,34.8L266.9,34.8L267.4,36.5C267.6,36.7 267.9,36.8 268.3,36.9C268.7,37 269.1,37 269.5,37C270.2,37 270.8,36.9 271.2,36.6C271.6,36.3 271.8,36 271.8,35.5C271.8,35.1 271.6,34.8 271.2,34.5C270.8,34.2 270.1,34 269.1,33.7C267.5,33.4 266.3,32.9 265.5,32.3C264.7,31.7 264.3,30.8 264.3,29.7C264.3,28.6 264.8,27.6 265.7,26.8C266.6,26 267.9,25.6 269.6,25.6C270.6,25.6 271.6,25.7 272.5,26C273.4,26.3 274.2,26.6 274.7,27.1L274.6,30.7Z" style="fill:rgb(35,31,32);"/>
            <path id="Fill-20" d="M282.9,36.9C283.5,36.9 284.1,36.7 284.4,36.3C284.8,35.9 285,35.4 285,34.8L288.3,34.8L288.3,34.9C288.3,36.2 287.8,37.4 286.8,38.3C285.8,39.2 284.5,39.7 282.9,39.7C280.9,39.7 279.4,39.1 278.3,37.8C277.2,36.5 276.7,34.9 276.7,32.9L276.7,32.5C276.7,30.5 277.3,28.9 278.4,27.7C279.5,26.4 281.1,25.8 283.1,25.8C284.2,25.8 285.1,26 286,26.3C286.9,26.6 287.6,27.1 288.1,27.7L288.2,31.3L285.3,31.3L284.7,29.2C284.5,29 284.3,28.9 284,28.8C283.7,28.7 283.4,28.6 283.1,28.6C282.1,28.6 281.4,29 280.9,29.7C280.5,30.4 280.3,31.4 280.3,32.6L280.3,33C280.3,34.2 280.5,35.2 280.9,35.9C281.3,36.6 282,36.9 282.9,36.9" style="fill:rgb(35,31,32);"/>
            <path id="Fill-21" d="M289.8,37.3L291.5,36.9L291.5,22.7L289.6,22.3L289.6,20.1L295.1,20.1L295.1,27.7C295.5,27.1 296,26.6 296.6,26.3C297.2,26 297.9,25.8 298.6,25.8C300,25.8 301.1,26.3 301.9,27.2C302.7,28.1 303.1,29.6 303.1,31.5L303.1,36.9L304.8,37.3L304.8,39.5L298,39.5L298,37.3L299.6,36.9L299.6,31.5C299.6,30.5 299.4,29.7 299.1,29.3C298.7,28.9 298.2,28.7 297.5,28.7C297,28.7 296.6,28.8 296.2,29C295.8,29.2 295.5,29.4 295.3,29.8L295.3,37L296.9,37.4L296.9,39.6L290,39.6L290,37.3L289.8,37.3Z" style="fill:rgb(35,31,32);"/>
            <path id="Fill-22" d="M306.9,33.1L313.9,33.1L313.9,30.4L306.9,30.4L306.9,33.1Z" style="fill:rgb(35,31,32);"/>
            <path id="Fill-23" d="M158.6,61.6L158.6,59.4L163.9,59.4L164,61.2C164.4,60.6 165,60.1 165.6,59.7C166.2,59.4 167,59.2 167.8,59.2C168.7,59.2 169.4,59.4 170,59.8C170.6,60.2 171.1,60.8 171.4,61.5C171.8,60.8 172.3,60.2 173,59.8C173.7,59.4 174.4,59.2 175.3,59.2C176.6,59.2 177.7,59.7 178.4,60.6C179.2,61.5 179.5,62.9 179.5,64.8L179.5,70.4L181.2,70.8L181.2,73L174.3,73L174.3,70.8L175.9,70.4L175.9,64.8C175.9,63.8 175.7,63.1 175.4,62.7C175.1,62.3 174.6,62.1 173.9,62.1C173.4,62.1 172.9,62.2 172.6,62.4C172.2,62.6 171.9,62.9 171.7,63.3L171.7,70.2L173.2,70.6L173.2,72.8L166.7,72.8L166.7,70.6L168.2,70.2L168.2,64.6C168.2,63.6 168,62.9 167.7,62.5C167.4,62.1 166.9,61.9 166.2,61.9C165.7,61.9 165.3,62 164.9,62.2C164.5,62.4 164.2,62.6 164,63L164,70.2L165.6,70.6L165.6,72.8L158.7,72.8L158.7,70.6L160.4,70.2L160.4,62L158.6,61.6Z" style="fill:rgb(35,31,32);"/>
            <path id="Fill-24" d="M188.6,62C187.9,62 187.4,62.3 187,62.8C186.6,63.3 186.4,64 186.3,64.8L186.3,64.9L190.7,64.9L190.7,64.6C190.7,63.8 190.5,63.2 190.2,62.8C189.9,62.2 189.4,62 188.6,62M189,73.1C187.1,73.1 185.5,72.5 184.4,71.3C183.2,70.1 182.7,68.5 182.7,66.6L182.7,66C182.7,64 183.2,62.4 184.3,61.1C185.4,59.8 186.9,59.2 188.7,59.2C190.5,59.2 191.9,59.7 192.9,60.8C193.9,61.9 194.4,63.4 194.4,65.2L194.4,67.2L186.4,67.2L186.4,67.3C186.5,68.2 186.8,68.9 187.3,69.5C187.8,70.1 188.5,70.4 189.4,70.4C190.2,70.4 190.9,70.3 191.4,70.2C191.9,70 192.5,69.8 193.1,69.4L194.1,71.6C193.5,72 192.8,72.4 192,72.7C191,72.9 190,73.1 189,73.1" style="fill:rgb(35,31,32);"/>
            <path id="Fill-25" d="M201.4,56.2L201.4,59.5L203.7,59.5L203.7,62L201.4,62L201.4,68.8C201.4,69.3 201.5,69.7 201.7,69.9C201.9,70.1 202.2,70.2 202.6,70.2C202.8,70.2 203.1,70.2 203.2,70.2C203.4,70.2 203.6,70.1 203.8,70.1L204.1,72.7C203.7,72.8 203.3,72.9 202.9,73C202.5,73.1 202.1,73.1 201.6,73.1C200.4,73.1 199.4,72.8 198.7,72.1C198,71.4 197.7,70.3 197.7,68.9L197.7,62L195.7,62L195.7,59.5L197.7,59.5L197.7,56.2L201.4,56.2Z" style="fill:rgb(35,31,32);"/>
            <path id="Fill-26" d="M205.3,70.6L207,70.2L207,56.1L205.1,55.7L205.1,53.5L210.6,53.5L210.6,61.1C211,60.5 211.5,60 212.1,59.7C212.7,59.4 213.4,59.2 214.1,59.2C215.5,59.2 216.6,59.7 217.4,60.6C218.2,61.5 218.6,63 218.6,64.9L218.6,70.3L220.3,70.7L220.3,72.9L213.4,72.9L213.4,70.7L215,70.3L215,64.9C215,63.9 214.8,63.1 214.5,62.7C214.1,62.3 213.6,62 212.9,62C212.4,62 212,62.1 211.6,62.3C211.2,62.5 210.9,62.7 210.7,63.1L210.7,70.3L212.3,70.7L212.3,72.9L205.4,72.9L205.4,70.6L205.3,70.6Z" style="fill:rgb(35,31,32);"/>
            <path id="Fill-27" d="M225.1,66.3C225.1,67.5 225.3,68.5 225.7,69.2C226.1,69.9 226.8,70.3 227.8,70.3C228.7,70.3 229.4,69.9 229.8,69.2C230.2,68.5 230.5,67.5 230.5,66.3L230.5,66C230.5,64.8 230.3,63.8 229.8,63.1C229.4,62.4 228.7,62 227.7,62C226.8,62 226.1,62.4 225.7,63.1C225.3,63.9 225.1,64.8 225.1,66L225.1,66.3ZM221.5,66C221.5,64 222.1,62.4 223.2,61.1C224.3,59.8 225.9,59.2 227.8,59.2C229.8,59.2 231.3,59.8 232.4,61.1C233.5,62.4 234.1,64 234.1,66L234.1,66.3C234.1,68.3 233.5,69.9 232.4,71.2C231.3,72.5 229.7,73.1 227.8,73.1C225.8,73.1 224.3,72.5 223.2,71.2C222.1,69.9 221.5,68.3 221.5,66.3L221.5,66Z" style="fill:rgb(35,31,32);"/>
            <path id="Fill-28" d="M239.4,66.5C239.4,67.7 239.6,68.6 240,69.3C240.4,70 241,70.3 241.9,70.3C242.4,70.3 242.9,70.2 243.3,70C243.7,69.8 244,69.5 244.3,69.1L244.3,63.4C244.1,63 243.7,62.6 243.4,62.4C243,62.2 242.6,62 242,62C241.1,62 240.5,62.4 240.1,63.2C239.7,64 239.5,65 239.5,66.3L239.5,66.5L239.4,66.5ZM244.4,71.2C244,71.8 243.5,72.3 242.9,72.6C242.3,72.9 241.7,73.1 240.9,73.1C239.3,73.1 238,72.5 237.1,71.3C236.2,70.1 235.7,68.5 235.7,66.5L235.7,66.2C235.7,64.1 236.2,62.4 237.1,61.1C238,59.8 239.3,59.2 241,59.2C241.7,59.2 242.3,59.3 242.8,59.6C243.3,59.9 243.8,60.3 244.2,60.8L244.2,56L242.3,55.6L242.3,53.4L247.8,53.4L247.8,70.1L249.5,70.5L249.5,72.7L244.7,72.7L244.4,71.2Z" style="fill:rgb(35,31,32);"/>
            <path id="Fill-29" d="M252.3,56.3L255.9,56.3L255.9,53.6L252.3,53.6L252.3,56.3ZM250.6,70.6L252.3,70.2L252.3,62L250.4,61.6L250.4,59.4L255.9,59.4L255.9,70.2L257.6,70.6L257.6,72.8L250.5,72.8L250.5,70.6L250.6,70.6Z" style="fill:rgb(35,31,32);"/>
            <path id="Fill-30" d="M269.7,64L267.3,64L266.9,62.3C266.7,62.1 266.3,61.9 266,61.8C265.6,61.7 265.2,61.6 264.8,61.6C264.2,61.6 263.7,61.7 263.3,62C262.9,62.3 262.7,62.6 262.7,63.1C262.7,63.5 262.9,63.8 263.2,64.1C263.6,64.4 264.3,64.6 265.3,64.8C267,65.1 268.2,65.6 269,66.3C269.8,66.9 270.2,67.8 270.2,68.9C270.2,70.1 269.7,71.1 268.7,71.8C267.7,72.6 266.3,72.9 264.6,72.9C263.6,72.9 262.6,72.8 261.8,72.4C260.9,72.1 260.2,71.7 259.5,71.1L259.5,68.1L262,68.1L262.5,69.8C262.7,70 263,70.1 263.4,70.2C263.8,70.3 264.2,70.3 264.6,70.3C265.3,70.3 265.9,70.2 266.3,69.9C266.7,69.6 266.9,69.3 266.9,68.8C266.9,68.4 266.7,68.1 266.3,67.8C265.9,67.5 265.2,67.3 264.2,67C262.6,66.7 261.4,66.2 260.6,65.6C259.8,65 259.4,64.1 259.4,63C259.4,61.9 259.9,60.9 260.8,60.1C261.7,59.3 263,58.9 264.7,58.9C265.7,58.9 266.7,59 267.6,59.3C268.5,59.6 269.3,59.9 269.8,60.4L269.7,64Z" style="fill:rgb(35,31,32);"/>
            <path id="Fill-31" d="M277.1,56.2L277.1,59.5L279.4,59.5L279.4,62L277.1,62L277.1,68.8C277.1,69.3 277.2,69.7 277.4,69.9C277.6,70.1 277.9,70.2 278.3,70.2C278.5,70.2 278.8,70.2 278.9,70.2C279.1,70.2 279.3,70.1 279.5,70.1L279.8,72.7C279.4,72.8 279,72.9 278.6,73C278.2,73.1 277.8,73.1 277.3,73.1C276.1,73.1 275.1,72.8 274.4,72.1C273.7,71.4 273.4,70.3 273.4,68.9L273.4,62L271.4,62L271.4,59.5L273.4,59.5L273.4,56.2L277.1,56.2Z" style="fill:rgb(35,31,32);"/>
            <path id="Fill-32" d="M282.9,56.3L286.5,56.3L286.5,53.6L282.9,53.6L282.9,56.3ZM281.1,70.6L282.8,70.2L282.8,62L280.9,61.6L280.9,59.4L286.4,59.4L286.4,70.2L288.1,70.6L288.1,72.8L281,72.8L281,70.6L281.1,70.6Z" style="fill:rgb(35,31,32);"/>
            <path id="Fill-33" d="M300.3,64L297.9,64L297.5,62.3C297.3,62.1 296.9,61.9 296.6,61.8C296.2,61.7 295.8,61.6 295.4,61.6C294.8,61.6 294.3,61.7 293.9,62C293.5,62.3 293.3,62.6 293.3,63.1C293.3,63.5 293.5,63.8 293.8,64.1C294.2,64.4 294.9,64.6 295.9,64.8C297.6,65.1 298.8,65.6 299.6,66.3C300.4,66.9 300.8,67.8 300.8,68.9C300.8,70.1 300.3,71.1 299.3,71.8C298.3,72.6 296.9,72.9 295.2,72.9C294.2,72.9 293.2,72.8 292.4,72.4C291.5,72.1 290.8,71.7 290.1,71.1L290.1,68.1L292.6,68.1L293.1,69.8C293.3,70 293.6,70.1 294,70.2C294.4,70.3 294.8,70.3 295.2,70.3C295.9,70.3 296.5,70.2 296.9,69.9C297.3,69.6 297.5,69.3 297.5,68.8C297.5,68.4 297.3,68.1 296.9,67.8C296.5,67.5 295.8,67.3 294.8,67C293.2,66.7 292,66.2 291.2,65.6C290.4,65 290,64.1 290,63C290,61.9 290.5,60.9 291.4,60.1C292.3,59.3 293.6,58.9 295.3,58.9C296.3,58.9 297.3,59 298.2,59.3C299.1,59.6 299.9,59.9 300.4,60.4L300.3,64Z" style="fill:rgb(35,31,32);"/>
            <path id="Fill-34" d="M308.7,70.3C309.3,70.3 309.9,70.1 310.2,69.7C310.6,69.3 310.8,68.8 310.8,68.2L314.1,68.2L314.1,68.3C314.1,69.6 313.6,70.8 312.6,71.7C311.6,72.6 310.3,73.1 308.7,73.1C306.7,73.1 305.2,72.5 304.1,71.2C303,69.9 302.5,68.3 302.5,66.3L302.5,66C302.5,64 303.1,62.4 304.2,61.2C305.3,59.9 306.9,59.3 308.9,59.3C310,59.3 310.9,59.5 311.8,59.8C312.7,60.1 313.4,60.6 313.9,61.2L314,64.8L311,64.8L310.4,62.7C310.2,62.5 310,62.4 309.7,62.3C309.4,62.2 309.1,62.1 308.8,62.1C307.8,62.1 307.1,62.5 306.6,63.2C306.2,63.9 306,64.9 306,66.1L306,66.5C306,67.7 306.2,68.7 306.6,69.4C307,69.9 307.7,70.3 308.7,70.3" style="fill:rgb(35,31,32);"/>
            <path id="Fill-35" d="M315.5,70.6L317.2,70.2L317.2,56.1L315.3,55.7L315.3,53.5L320.8,53.5L320.8,61.1C321.2,60.5 321.7,60 322.3,59.7C322.9,59.4 323.6,59.2 324.3,59.2C325.7,59.2 326.8,59.7 327.6,60.6C328.4,61.5 328.8,63 328.8,64.9L328.8,70.3L330.5,70.7L330.5,72.9L323.6,72.9L323.6,70.7L325.2,70.3L325.2,64.9C325.2,63.9 325,63.1 324.7,62.7C324.3,62.3 323.8,62 323.1,62C322.6,62 322.2,62.1 321.8,62.3C321.4,62.5 321.1,62.7 320.9,63.1L320.9,70.3L322.5,70.7L322.5,72.9L315.6,72.9L315.6,70.6L315.5,70.6Z" style="fill:rgb(35,31,32);"/>
            <path id="Fill-36" d="M337.9,62C337.2,62 336.7,62.3 336.3,62.8C335.9,63.3 335.7,64 335.6,64.8L335.6,64.9L340,64.9L340,64.6C340,63.8 339.8,63.2 339.5,62.8C339.2,62.2 338.6,62 337.9,62M338.2,73.1C336.3,73.1 334.7,72.5 333.6,71.3C332.4,70.1 331.9,68.5 331.9,66.6L331.9,66C331.9,64 332.4,62.4 333.5,61.1C334.6,59.8 336.1,59.2 337.9,59.2C339.7,59.2 341.1,59.7 342.1,60.8C343.1,61.9 343.6,63.4 343.6,65.2L343.6,67.2L335.6,67.2L335.6,67.3C335.7,68.2 336,68.9 336.5,69.5C337,70.1 337.7,70.4 338.6,70.4C339.4,70.4 340.1,70.3 340.6,70.2C341.1,70 341.7,69.8 342.3,69.4L343.3,71.6C342.7,72 342,72.4 341.2,72.7C340.3,72.9 339.3,73.1 338.2,73.1" style="fill:rgb(35,31,32);"/>
            <path id="Fill-37" d="M159,104L160.9,103.7L160.9,90.8L159,90.4L159,88.2L166.3,88.2L166.3,90.4L164.5,90.8L164.5,95.6L166,95.6L169.5,90.5L168.4,90.4L168.4,88.2L175.6,88.2L175.6,90.4L173.6,90.7L169.2,96.6L174.2,103.7L176,104L176,106.2L168.8,106.2L168.8,104L169.9,103.9L166.5,98.7L164.5,98.7L164.5,103.7L166.3,104L166.3,106.2L159,106.2L159,104Z" style="fill:rgb(35,31,32);"/>
            <path id="Fill-38" d="M178.7,89.6L182.3,89.6L182.3,86.9L178.7,86.9L178.7,89.6ZM177,104L178.7,103.6L178.7,95.3L176.8,94.9L176.8,92.7L182.3,92.7L182.3,103.5L184,103.9L184,106.1L177,106.1L177,104Z" style="fill:rgb(35,31,32);"/>
            <path id="Fill-39" d="M185.5,104L187.2,103.6L187.2,95.3L185.3,94.9L185.3,92.7L190.6,92.7L190.8,94.6C191.1,93.9 191.5,93.4 192,93C192.5,92.6 193.1,92.4 193.7,92.4C193.9,92.4 194.1,92.4 194.3,92.4C194.5,92.4 194.7,92.5 194.8,92.5L194.4,95.8L192.9,95.8C192.4,95.8 191.9,95.9 191.6,96.1C191.3,96.3 191,96.6 190.8,97L190.8,103.5L192.5,103.9L192.5,106.1L185.4,106.1L185.4,104L185.5,104Z" style="fill:rgb(35,31,32);"/>
            <path id="Fill-40" d="M202.2,103.7C202.8,103.7 203.4,103.5 203.7,103.1C204.1,102.7 204.3,102.2 204.3,101.6L207.6,101.6L207.6,101.7C207.6,103 207.1,104.2 206.1,105.1C205.1,106 203.8,106.5 202.2,106.5C200.2,106.5 198.7,105.9 197.6,104.6C196.5,103.3 196,101.7 196,99.7L196,99.3C196,97.3 196.6,95.7 197.7,94.5C198.8,93.2 200.4,92.6 202.4,92.6C203.5,92.6 204.4,92.8 205.3,93.1C206.2,93.4 206.9,93.9 207.4,94.5L207.5,98.1L204.6,98.1L204,96C203.8,95.8 203.6,95.7 203.3,95.6C203,95.5 202.7,95.4 202.4,95.4C201.4,95.4 200.7,95.8 200.2,96.5C199.8,97.2 199.6,98.2 199.6,99.4L199.6,99.8C199.6,101 199.8,102 200.2,102.7C200.5,103.3 201.2,103.7 202.2,103.7" style="fill:rgb(35,31,32);"/>
            <path id="Fill-41" d="M209,104L210.7,103.6L210.7,89.5L208.8,89.1L208.8,86.9L214.3,86.9L214.3,94.5C214.7,93.9 215.2,93.4 215.8,93.1C216.4,92.8 217.1,92.6 217.8,92.6C219.2,92.6 220.3,93.1 221.1,94C221.9,94.9 222.3,96.4 222.3,98.3L222.3,103.7L224,104.1L224,106.3L217.1,106.3L217.1,104L218.7,103.6L218.7,98.2C218.7,97.2 218.5,96.4 218.2,96C217.8,95.6 217.3,95.3 216.6,95.3C216.1,95.3 215.7,95.4 215.3,95.6C214.9,95.8 214.6,96 214.4,96.4L214.4,103.6L216,104L216,106.2L209,106.2L209,104Z" style="fill:rgb(35,31,32);"/>
            <path id="Fill-42" d="M231.4,95.4C230.7,95.4 230.2,95.7 229.8,96.2C229.4,96.7 229.2,97.4 229.1,98.2L229.1,98.3L233.5,98.3L233.5,98C233.5,97.2 233.3,96.6 233,96.2C232.6,95.6 232.1,95.4 231.4,95.4M231.7,106.4C229.8,106.4 228.2,105.8 227.1,104.6C225.9,103.4 225.4,101.8 225.4,99.9L225.4,99.4C225.4,97.4 225.9,95.8 227,94.5C228.1,93.2 229.6,92.6 231.4,92.6C233.2,92.6 234.6,93.1 235.6,94.2C236.6,95.3 237.1,96.8 237.1,98.6L237.1,100.6L229.1,100.6L229.1,100.7C229.2,101.6 229.5,102.3 230,102.9C230.5,103.5 231.2,103.8 232.1,103.8C232.9,103.8 233.6,103.7 234.1,103.6C234.6,103.4 235.2,103.2 235.8,102.8L236.8,105C236.2,105.4 235.5,105.8 234.7,106.1C233.7,106.3 232.8,106.4 231.7,106.4" style="fill:rgb(35,31,32);"/>
        </g>
    </g>
</svg>
